<?xml version="1.0" standalone="no"?>
<!DOCTYPE svg PUBLIC "-//W3C//DTD SVG 20010904//EN"
 "http://www.w3.org/TR/2001/REC-SVG-20010904/DTD/svg10.dtd">
<svg version="1.0" xmlns="http://www.w3.org/2000/svg"
 width="474.000000pt" height="474.000000pt" viewBox="0 0 474.000000 474.000000"
 preserveAspectRatio="xMidYMid meet">

<g transform="translate(0.000000,474.000000) scale(0.100000,-0.100000)"
fill="#000000" stroke="none">
<path d="M1395 4230 c-3 -6 1 -7 9 -4 18 7 21 14 7 14 -6 0 -13 -4 -16 -10z"/>
<path d="M1225 4125 c-11 -8 -57 -42 -102 -75 -231 -171 -447 -428 -577 -689
-126 -250 -197 -496 -220 -766 -3 -27 -8 -81 -11 -120 -6 -73 9 -310 25 -380
29 -128 39 -174 45 -209 3 -21 8 -36 11 -34 2 3 -2 40 -11 84 -26 143 -22 216
16 250 10 9 19 20 19 24 0 12 64 115 92 149 15 17 29 40 33 51 3 11 10 20 15
20 5 0 30 32 56 71 25 39 52 78 60 88 8 9 36 43 63 76 112 135 206 237 396
426 110 110 207 203 216 207 16 7 125 103 238 210 30 28 61 52 68 52 18 0 16
17 -2 24 -8 3 -15 1 -15 -4 0 -6 -7 -10 -16 -10 -10 0 -7 7 12 25 20 18 23 25
11 25 -9 0 -19 -4 -22 -10 -11 -17 -25 -11 -25 10 0 11 -8 23 -17 27 -50 16
-121 53 -145 74 -64 55 -155 147 -183 183 -16 21 -44 53 -62 70 -48 47 -54
105 -10 97 5 -1 6 3 3 8 -4 5 2 12 13 16 10 3 26 14 36 25 21 24 17 26 -10 5z
m-83 -82 c-6 -2 -10 -8 -8 -12 3 -4 -1 -8 -9 -8 -11 0 -12 4 -4 14 6 7 17 13
23 12 7 0 6 -2 -2 -6z m420 -435 c-9 -9 -15 -9 -24 0 -9 9 -7 12 12 12 19 0
21 -3 12 -12z"/>
<path d="M3757 3949 c7 -9 9 -20 5 -24 -4 -5 -2 -5 5 -1 7 3 14 -2 18 -12 3
-11 15 -24 28 -31 13 -7 14 -9 4 -6 -11 3 -15 1 -12 -5 4 -6 14 -9 23 -8 10 2
16 -3 14 -10 -1 -8 2 -11 7 -8 5 4 9 -2 8 -13 -1 -16 -4 -18 -15 -9 -14 12
-32 -3 -32 -28 0 -7 -11 -15 -24 -18 -19 -5 -25 -14 -28 -38 -2 -24 -9 -34
-23 -36 -11 -2 -36 -20 -56 -40 -69 -70 -121 -112 -157 -129 -41 -19 -62 -37
-62 -51 0 -11 -24 -22 -49 -22 -10 0 -37 -18 -60 -40 -23 -22 -46 -40 -52 -40
-5 0 -23 -16 -40 -35 -31 -34 -59 -46 -59 -24 0 8 -4 8 -12 2 -7 -6 -29 -16
-48 -22 -19 -6 -52 -27 -72 -46 -20 -19 -45 -35 -56 -35 -11 0 -23 -7 -26 -16
-5 -12 -9 -14 -20 -5 -10 9 -22 3 -52 -24 -37 -34 -41 -35 -116 -35 -45 0 -78
-4 -78 -10 0 -5 -15 -10 -32 -10 -25 0 -29 -3 -18 -10 12 -8 11 -10 -7 -10
-14 0 -23 6 -23 15 0 18 -21 20 -38 3 -6 -6 -15 -8 -19 -4 -4 4 -1 12 7 17 12
8 9 9 -10 7 -18 -2 -24 -8 -22 -22 3 -16 -4 -13 -37 13 -39 31 -52 51 -32 51
5 0 16 -11 25 -25 9 -14 21 -25 27 -25 15 0 22 27 15 55 -6 24 -8 25 -28 11
-15 -11 -25 -12 -34 -5 -8 7 -14 7 -19 -1 -10 -16 -28 -12 -21 5 3 9 1 15 -7
14 -6 -1 -22 2 -34 6 -19 6 -22 13 -18 42 4 35 4 35 -16 17 -19 -17 -22 -17
-102 25 -45 23 -89 40 -97 37 -24 -10 -389 -391 -489 -511 -23 -27 -54 -63
-69 -80 -15 -16 -47 -57 -72 -91 -25 -34 -63 -86 -86 -115 -22 -30 -57 -79
-77 -109 -20 -30 -46 -68 -59 -84 -13 -16 -26 -37 -31 -45 -4 -9 -23 -36 -42
-61 -19 -25 -43 -61 -54 -81 -11 -19 -27 -41 -35 -48 -9 -8 -16 -19 -16 -26 0
-6 -9 -20 -20 -30 -11 -10 -20 -26 -20 -35 0 -10 -9 -28 -19 -42 -11 -13 -45
-73 -76 -132 -31 -60 -66 -125 -79 -145 -42 -69 -168 -335 -186 -391 -7 -25
-17 -49 -22 -55 -19 -22 -7 -70 31 -120 70 -92 309 -318 428 -404 62 -45 224
-141 238 -141 15 0 2 22 -17 31 -21 9 -21 9 5 4 20 -4 27 -1 27 10 0 9 12 18
29 21 16 4 41 18 55 33 38 40 48 46 86 50 19 1 39 9 43 17 6 10 14 11 32 4 15
-6 27 -6 30 0 10 16 19 12 61 -25 48 -44 161 -121 198 -135 32 -12 257 6 267
22 3 5 21 9 40 8 41 -1 97 8 124 20 27 12 174 27 267 28 68 1 79 -2 89 -19 6
-12 17 -18 25 -15 8 3 14 1 14 -4 0 -5 19 -15 43 -21 23 -7 55 -23 70 -36 16
-13 43 -24 63 -24 51 -2 51 -2 78 -34 28 -33 32 -45 14 -45 -6 0 -9 -3 -5 -6
5 -6 96 25 134 45 10 5 38 17 63 26 62 23 240 126 335 195 76 55 304 277 396
385 66 78 129 179 135 216 6 39 -22 79 -56 79 -10 0 -72 -18 -137 -41 -323
-112 -426 -133 -668 -133 -116 0 -200 6 -265 17 -92 17 -296 70 -329 87 -9 4
-73 36 -143 70 -158 78 -255 154 -374 292 -127 146 -226 336 -265 508 -18 81
-16 242 6 325 26 103 59 162 133 237 52 53 82 74 138 98 159 66 306 64 456 -7
199 -93 311 -324 268 -554 -14 -75 -71 -187 -127 -249 -37 -42 -47 -60 -47
-88 0 -20 5 -37 12 -40 7 -2 12 -10 12 -18 0 -7 12 -21 28 -31 15 -10 29 -20
32 -23 9 -9 119 -61 160 -75 3 -1 12 -4 20 -7 180 -63 424 -73 655 -28 241 46
391 125 545 286 178 185 266 446 240 710 -32 328 -243 766 -499 1037 -89 94
-192 192 -164 156z m138 -168 c-6 -5 -25 10 -25 20 0 5 6 4 14 -3 8 -7 12 -15
11 -17z m-1345 -606 c0 -8 -4 -15 -10 -15 -5 0 -10 7 -10 15 0 8 5 15 10 15 6
0 10 -7 10 -15z m80 -85 c0 -5 -4 -10 -10 -10 -5 0 -10 5 -10 10 0 6 5 10 10
10 6 0 10 -4 10 -10z m-40 -10 c0 -5 -2 -10 -4 -10 -3 0 -8 5 -11 10 -3 6 -1
10 4 10 6 0 11 -4 11 -10z m120 -60 c0 -5 -5 -10 -11 -10 -5 0 -7 5 -4 10 3 6
8 10 11 10 2 0 4 -4 4 -10z m-1005 -2230 c3 -5 1 -10 -4 -10 -6 0 -11 5 -11
10 0 6 2 10 4 10 3 0 8 -4 11 -10z"/>
<path d="M1675 3590 c3 -5 8 -10 11 -10 2 0 4 5 4 10 0 6 -5 10 -11 10 -5 0
-7 -4 -4 -10z"/>
<path d="M2220 3350 c8 -5 24 -10 34 -10 26 0 18 6 -19 14 -22 5 -26 4 -15 -4z"/>
<path d="M2290 3311 c0 -5 13 -14 29 -21 22 -9 34 -9 48 0 16 10 15 10 -5 5
-14 -4 -33 0 -47 9 -14 9 -25 12 -25 7z"/>
<path d="M395 1806 c-5 -11 -3 -21 6 -26 19 -12 21 -7 10 21 -8 22 -10 22 -16
5z"/>
<path d="M422 1735 c0 -16 2 -22 5 -12 2 9 2 23 0 30 -3 6 -5 -1 -5 -18z"/>
<path d="M442 1701 c-15 -9 -13 -42 3 -48 6 -2 10 11 10 27 0 17 0 30 0 30 0
0 -6 -4 -13 -9z"/>
<path d="M450 1610 c0 -11 2 -20 4 -20 2 0 6 9 9 20 3 11 1 20 -4 20 -5 0 -9
-9 -9 -20z"/>
<path d="M2050 570 c-10 -6 -2 -7 25 -3 49 7 58 13 19 13 -16 0 -36 -5 -44
-10z"/>
<path d="M2140 560 c0 -5 5 -10 10 -10 6 0 10 5 10 10 0 6 -4 10 -10 10 -5 0
-10 -4 -10 -10z"/>
<path d="M3028 493 c6 -2 18 -2 25 0 6 3 1 5 -13 5 -14 0 -19 -2 -12 -5z"/>
</g>
</svg>
